<?xml version="1.0" encoding="UTF-8"?>
<svg width="20px" height="20px" viewBox="0 0 20 20" version="1.1" xmlns="http://www.w3.org/2000/svg" xmlns:xlink="http://www.w3.org/1999/xlink">
    <!-- Generator: sketchtool 61.2 (101010) - https://sketch.com -->
    <title>F4B61926-8B00-4FA2-8753-C5855105CDBC</title>
    <desc>Created with sketchtool.</desc>
    <g id="Asset-Artboard-Page" stroke="none" stroke-width="1" fill="none" fill-rule="evenodd">
        <g id="💎-forms/icons/suffix" fill="#717171">
            <path d="M8.48484834,1.66666667 C12.2504261,1.66666667 15.30303,4.71927058 15.30303,8.48484834 C15.30303,10.0946695 14.7451221,11.5741844 13.8121102,12.740589 L18.1114449,17.040071 C18.4072967,17.3359227 18.4072967,17.8155932 18.1114449,18.1114449 C17.8155932,18.4072967 17.3359227,18.4072967 17.040071,18.1114449 L12.740589,13.8121102 C11.5741844,14.7451221 10.0946695,15.30303 8.48484834,15.30303 C4.71927058,15.30303 1.66666667,12.2504261 1.66666667,8.48484834 C1.66666667,4.71927058 4.71927058,1.66666667 8.48484834,1.66666667 Z M8.48484864,3.18181823 C5.55606581,3.18181823 3.18181823,5.55606581 3.18181823,8.48484864 C3.18181823,11.4136315 5.55606581,13.787879 8.48484864,13.787879 C11.4136315,13.787879 13.787879,11.4136315 13.787879,8.48484864 C13.787879,5.55606581 11.4136315,3.18181823 8.48484864,3.18181823 Z" id="Combined-Shape"></path>
        </g>
    </g>
</svg>